<mxfile host="app.diagrams.net" modified="2024-05-28T07:01:32.079Z" agent="Mozilla/5.0 (Macintosh; Intel Mac OS X 10_15_7) AppleWebKit/537.36 (KHTML, like Gecko) Chrome/125.0.0.0 Safari/537.36" version="24.4.9" etag="3p_k4h-73fTxhgMIfi5G" type="github">
  <diagram name="Page-1" id="IIPJE3vFMl4AOH8bAWX_">
    <mxGraphModel>
      <root>
        <mxCell id="0" />
        <mxCell id="1" parent="0" />
      </root>
    </mxGraphModel>
  </diagram>
</mxfile>
